<svg width="137" height="28" viewBox="0 0 137 28" fill="none" xmlns="http://www.w3.org/2000/svg">
<path d="M6.52145 6.1864V10.7551H18.6347V15.8669H6.52145V26.4627H0V0.555908H20.3027V6.1864H6.52145ZM30.1948 27.0465C29.1065 27.0456 28.0271 26.8507 27.0073 26.4708C25.9661 26.0843 25.0205 25.4779 24.2347 24.693C23.3814 23.8312 22.7134 22.8039 22.2718 21.6743C21.7768 20.4633 21.53 19.0306 21.5314 17.3762V8.1107H28.0406V17.3721C28.0406 18.5574 28.3437 19.5453 28.9499 20.3359C29.556 21.1265 30.4775 21.5265 31.7143 21.536C32.2492 21.5437 32.7774 21.4164 33.25 21.1658C33.6927 20.9308 34.0835 20.6091 34.3993 20.2199C34.7142 19.827 34.9585 19.3823 35.1214 18.9059C35.2936 18.4178 35.3817 17.904 35.3818 17.3864L35.4225 8.1107H41.9053V26.4485H36.3806L35.5303 24.4855H35.3432C34.8314 25.3404 34.0594 26.009 33.1402 26.3935C32.2151 26.8156 31.2115 27.0381 30.1948 27.0465ZM56.6101 7.55741C59.4009 7.55741 61.5436 8.34192 63.038 9.91091C64.5324 11.4799 65.2782 13.9209 65.2755 17.2338V26.4586H58.7948V17.2277C58.7948 16.0425 58.5235 15.079 57.9811 14.3372C57.4387 13.5954 56.4752 13.2252 55.0906 13.2266C54.5592 13.219 54.0332 13.3331 53.5528 13.5602C53.1069 13.7735 52.7095 14.0761 52.3852 14.4491C52.0618 14.8257 51.8108 15.2588 51.6448 15.7265C51.4723 16.2082 51.3848 16.7161 51.3864 17.2277V26.4525H44.9402V8.1107H50.4222L51.2359 10.1448H51.421C51.9296 9.28779 52.6845 8.60378 53.5874 8.1819C54.5367 7.75393 55.5688 7.5407 56.6101 7.55741ZM88.2857 0.555908V26.4525H82.5799L81.8761 24.3045H81.7276C81.3044 25.2487 80.5453 26.0019 79.5979 26.418C78.6423 26.8183 77.6152 27.0197 76.5792 27.0099C75.2401 27.0423 73.9088 26.7964 72.6696 26.2878C71.6191 25.8417 70.6912 25.1496 69.9642 24.2699C69.235 23.356 68.6994 22.3034 68.3898 21.176C68.0309 19.8793 67.8563 18.5385 67.8711 17.1931C67.8388 15.7277 68.0838 14.2694 68.5932 12.895C69.0225 11.7674 69.6789 10.7399 70.5216 9.87633C71.3001 9.08892 72.2416 8.48142 73.2799 8.09646C74.2998 7.71731 75.3792 7.52306 76.4674 7.52283C77.5136 7.50886 78.5501 7.7241 79.5043 8.15342C80.4018 8.55873 81.1521 9.23155 81.6524 10.0797H81.8009V2.11202L88.2857 0.555908ZM81.7643 17.1911C81.7643 16.6763 81.6642 16.1664 81.4693 15.6899C81.2789 15.2214 81.0092 14.7893 80.6719 14.4125C80.3426 14.0449 79.9463 13.7432 79.5043 13.5235C79.0682 13.3023 78.5857 13.188 78.0967 13.1899C77.6358 13.1928 77.1809 13.294 76.7623 13.4869C76.3168 13.6853 75.9099 13.9607 75.5601 14.3006C75.1934 14.658 74.9034 15.0864 74.7078 15.5597C74.4932 16.0751 74.3859 16.6288 74.3925 17.187C74.3834 17.8062 74.4904 18.4217 74.7078 19.0015C74.8916 19.505 75.1675 19.9699 75.5215 20.3725C75.8365 20.7298 76.2205 21.0197 76.6504 21.2248C77.0429 21.4159 77.473 21.5173 77.9096 21.5218C78.3847 21.5203 78.8555 21.4321 79.2989 21.2614C79.7629 21.0846 80.1853 20.8138 80.5397 20.4661C80.9272 20.0817 81.2306 19.6211 81.4307 19.1134C81.6639 18.4999 81.7772 17.8473 81.7643 17.1911Z" fill="#312783"/>
<path d="M116.178 22.2297C114.804 23.8738 113.04 25.1474 111.048 25.9339C109.118 26.6928 107.063 27.0826 104.99 27.0832C103.067 27.1018 101.158 26.7624 99.3593 26.0824C97.6935 25.4554 96.1649 24.5119 94.8578 23.3037C93.5753 22.105 92.5533 20.6551 91.8554 19.0442C91.131 17.3033 90.7596 15.4358 90.7627 13.5502C90.7659 11.6646 91.1435 9.79838 91.8737 8.05988C92.5849 6.43661 93.6189 4.97495 94.9127 3.76378C96.2237 2.55109 97.761 1.60893 99.4366 0.99125C101.212 0.325274 103.094 -0.0104561 104.99 0.000625442C107.143 -0.0188443 109.277 0.416455 111.251 1.27806C113.14 2.10329 114.823 3.33711 116.178 4.89069L111.031 8.59486C110.301 7.69547 109.373 6.9768 108.319 6.49484C107.266 6.01289 106.115 5.78065 104.957 5.81623C103.848 5.79794 102.746 5.99982 101.715 6.4102C100.809 6.7743 99.9888 7.32294 99.3064 8.02123C98.6395 8.71952 98.1285 9.55154 97.8073 10.4622C97.1129 12.4664 97.1129 14.6459 97.8073 16.6501C98.1314 17.5731 98.6519 18.4148 99.3328 19.1171C100.014 19.8195 100.839 20.3658 101.751 20.7183C102.783 21.1196 103.883 21.3179 104.99 21.3021C106.131 21.3105 107.264 21.097 108.324 20.6736C109.392 20.2326 110.334 19.5337 111.066 18.6394L116.178 22.2297ZM135.549 9.98418C135.017 8.8165 134.269 7.76038 133.344 6.87195C132.406 5.97517 131.306 5.26484 130.103 4.77882C127.556 3.766 124.718 3.766 122.17 4.77882C120.967 5.26528 119.867 5.97553 118.928 6.87195C118.005 7.75848 117.263 8.81538 116.743 9.98418C116.217 11.1812 115.946 12.4745 115.946 13.7819C115.946 15.0894 116.217 16.3826 116.743 17.5797C117.262 18.749 118.004 19.8061 118.928 20.6919C120.873 22.5365 123.453 23.5647 126.134 23.5647C128.815 23.5647 131.394 22.5365 133.34 20.6919C134.266 19.8042 135.014 18.7479 135.545 17.5797C136.082 16.3857 136.36 15.0913 136.36 13.7819C136.36 12.4725 136.082 11.1781 135.545 9.98418H135.549ZM126.157 18.2997C125.264 18.2997 124.39 18.0348 123.647 17.5384C122.904 17.0419 122.325 16.3363 121.983 15.5108C121.641 14.6853 121.552 13.7769 121.726 12.9005C121.9 12.0242 122.331 11.2192 122.962 10.5873C123.594 9.95551 124.399 9.52523 125.276 9.3509C126.152 9.17658 127.06 9.26605 127.886 9.60799C128.711 9.94993 129.417 10.529 129.914 11.2719C130.41 12.0149 130.675 12.8884 130.675 13.7819C130.675 14.9794 130.199 16.1279 129.353 16.9751C128.507 17.8222 127.359 18.2987 126.161 18.2997H126.157Z" fill="#36A9E1"/>
</svg>
